<?xml version="1.0" standalone="no"?>
<!DOCTYPE svg PUBLIC "-//W3C//DTD SVG 20010904//EN"
 "http://www.w3.org/TR/2001/REC-SVG-20010904/DTD/svg10.dtd">
<svg version="1.0" xmlns="http://www.w3.org/2000/svg"
 width="197.000000pt" height="50.000000pt" viewBox="0 0 197.000000 50.000000"
 preserveAspectRatio="xMidYMid meet">

<g transform="translate(0.000000,50.000000) scale(0.100000,-0.100000)"
fill="#000000" stroke="none">
<path d="M70 250 l0 -180 915 0 915 0 0 180 0 180 -915 0 -915 0 0 -180z m285
70 c0 -9 -11 -16 -27 -18 -28 -3 -28 -4 -28 -73 0 -62 -2 -70 -17 -67 -15 3
-19 16 -21 71 -3 63 -4 67 -26 67 -23 0 -41 22 -28 34 3 4 38 5 77 4 54 -2 70
-6 70 -18z m163 3 c-2 -14 -15 -19 -51 -21 -62 -4 -66 -29 -4 -34 29 -2 42 -8
42 -18 0 -10 -13 -16 -42 -18 -62 -5 -58 -30 5 -34 34 -2 47 -7 47 -18 0 -12
-15 -16 -67 -18 l-68 -3 0 91 0 90 71 0 c62 0 70 -2 67 -17z m145 5 c9 -7 19
-25 22 -40 9 -36 -31 -78 -75 -78 -26 0 -30 -4 -30 -26 0 -19 -5 -25 -17 -22
-15 3 -19 16 -21 77 -2 41 -1 80 2 88 7 17 96 18 119 1z m160 -66 c21 -43 37
-83 37 -90 0 -17 -37 -15 -44 3 -3 10 -19 15 -45 15 -25 0 -41 -5 -45 -15 -7
-20 -36 -19 -36 1 0 28 68 164 83 164 8 0 30 -35 50 -78z m211 37 l28 -40 30
41 c46 62 62 52 66 -40 2 -80 -6 -107 -32 -97 -11 4 -16 19 -16 47 l0 41 -23
-27 -23 -27 -27 29 -27 29 0 -48 c0 -40 -3 -47 -20 -47 -19 0 -20 7 -20 90 0
79 2 90 18 90 9 0 30 -19 46 -41z m294 24 c-2 -14 -15 -19 -51 -21 -33 -2 -47
-7 -47 -18 0 -10 13 -14 46 -14 38 0 45 -3 42 -17 -2 -13 -15 -19 -46 -21 -61
-5 -57 -30 5 -34 36 -2 49 -7 51 -20 3 -16 -5 -18 -67 -18 l-71 0 0 90 0 90
71 0 c62 0 70 -2 67 -17z m157 -3 c0 -10 -13 -16 -42 -18 -50 -4 -59 -22 -11
-22 40 0 68 -25 68 -61 0 -42 -24 -59 -85 -59 -62 0 -65 5 -65 90 0 89 2 91
74 88 46 -2 61 -7 61 -18z m200 -70 c0 -73 -2 -85 -17 -88 -16 -3 -18 5 -18
67 l0 71 -30 0 c-28 0 -30 -2 -30 -39 0 -54 -14 -88 -40 -96 -35 -11 -48 11
-22 35 18 17 22 32 22 81 l0 60 68 -3 67 -3 0 -85z m75 0 c0 -83 -1 -90 -20
-90 -19 0 -20 7 -20 90 0 83 1 90 20 90 19 0 20 -7 20 -90z"/>
<path d="M580 280 c0 -15 7 -20 28 -20 34 0 43 7 35 26 -3 8 -18 14 -34 14
-22 0 -29 -5 -29 -20z"/>
<path d="M765 260 c-8 -13 -1 -24 14 -19 6 3 7 10 2 18 -6 10 -10 10 -16 1z"/>
<path d="M1400 220 c0 -16 7 -20 30 -20 23 0 30 4 30 20 0 16 -7 20 -30 20
-23 0 -30 -4 -30 -20z"/>
</g>
</svg>
